<svg xmlns="http://www.w3.org/2000/svg" width="480" height="420" viewBox="0, 0, 480, 420"><g fill="#282832"><path d="M46.607 241.71C60 231 240.234 74.68 240.234 74.68l192.432 166.228s8.26 8.223 16.547 3.283c8.287-4.94 21.65-18.995 22.844-21.592 1.193-2.598 1.267-7.504-2.645-13.676C465.5 202.75 263.082 29.7 251.542 19.6c-11.542-10.1-22.614.543-22.614.543S30.988 191.406 17.494 203.203C-1 217 12.774 226.598 12.774 226.598l12.677 14.547s7.765 11.277 21.157.566zM341.374 75.1l58.1 49.17s.674-49.887.1-65.912c-.574-16.025-14.017-14.712-14.017-14.712l-28.484-.363s-15.38-.9-15.727 12.742c-.346 13.642.028 19.075.028 19.075zM240.354 99.28L414.14 250.53s.527 90.47.193 124.47c-.333 34-35.373 30.764-35.373 30.764l-277.01-.217s-35.66 6.23-35.805-34.992c-.145-41.222-.088-120.16-.088-120.16zm-33.11 131.497h-21.146c-1.744 0-2.88.91-3.41 2.728-.91 3.487-1.782 9.323-2.616 17.508-3.26 1.06-6.177 2.274-8.754 3.638l-13.074-10.23c-.758-.53-1.554-.797-2.387-.797-1.44 0-4.434 2.236-8.982 6.708-4.547 4.473-7.655 7.845-9.322 10.12-.53.606-.796 1.364-.796 2.273 0 .682.265 1.44.796 2.274 4.244 5.078 7.655 9.436 10.232 13.074-1.592 3.108-2.805 5.988-3.638 8.64l-17.622 2.73c-.682.076-1.29.473-1.82 1.193-.53.72-.795 1.46-.795 2.217v21.033c0 .833.265 1.572.796 2.217.53.644 1.175 1.004 1.933 1.08l17.28 2.728c.91 2.88 2.235 5.988 3.978 9.323-1.212 1.668-2.993 3.98-5.343 6.936-2.35 2.955-3.903 4.964-4.66 6.025-.532.76-.797 1.48-.797 2.16 0 2.047 5.457 8.11 16.37 18.19.76.608 1.555.91 2.39.91.984 0 1.742-.265 2.272-.795l13.415-10.118c3.108 1.59 5.95 2.766 8.527 3.524l2.615 17.395c.076.758.455 1.42 1.137 1.99.682.568 1.44.852 2.274.852h21.145c1.744 0 2.88-.91 3.41-2.728.91-3.563 1.782-9.437 2.616-17.623 3.03-.91 5.95-2.084 8.753-3.524l13.074 10.232c.758.53 1.554.796 2.388.796 1.44 0 4.414-2.254 8.924-6.764s7.635-7.9 9.378-10.175c.53-.53.796-1.25.796-2.16 0-.757-.265-1.515-.796-2.273-4.244-5.078-7.655-9.436-10.232-13.074 1.592-3.107 2.805-5.987 3.638-8.64l17.622-2.73c.682-.074 1.29-.472 1.82-1.192s.795-1.458.795-2.216V293.19c0-.832-.264-1.57-.795-2.215-.53-.645-1.175-1.043-1.933-1.194l-17.28-2.614c-.834-2.577-2.122-5.684-3.866-9.322 1.137-1.668 2.843-3.942 5.116-6.822 2.274-2.88 3.866-4.926 4.775-6.14.53-.757.796-1.477.796-2.16 0-2.045-5.457-8.11-16.37-18.19-.76-.605-1.555-.91-2.388-.91-.91 0-1.668.267-2.274.797l-13.414 10.117c-3.108-1.59-5.95-2.766-8.527-3.524l-2.616-17.394c-.076-.76-.455-1.422-1.137-1.99-.682-.57-1.44-.853-2.273-.853zm105.843-27.286l-.682.23c-3.107 3.106-6.594 7.35-10.46 12.732-1.515-.152-2.652-.227-3.41-.227s-1.895.075-3.41.227c-1.062-1.592-3.032-4.15-5.912-7.674s-4.624-5.287-5.23-5.287c-.152 0-1.288.608-3.41 1.82-2.123 1.213-4.36 2.502-6.708 3.866-2.35 1.364-3.676 2.122-3.98 2.274-.302.227-.454.492-.454.795 0 1.895 1.934 7.125 5.8 15.69-1.29 1.743-2.426 3.713-3.412 5.91-11.293 1.138-16.94 2.313-16.94 3.526v15.917c0 1.213 5.647 2.387 16.94 3.524.91 2.048 2.047 4.018 3.41 5.913-3.864 8.565-5.797 13.794-5.797 15.69 0 .302.153.567.456.795 9.246 5.38 13.945 8.072 14.097 8.072.606 0 2.35-1.78 5.23-5.344 2.88-3.562 4.85-6.14 5.912-7.73 1.515.15 2.652.227 3.41.227s1.895-.076 3.41-.227c1.062 1.59 3.032 4.168 5.913 7.73 2.88 3.563 4.623 5.344 5.23 5.344.15 0 4.85-2.69 14.097-8.072.303-.228.454-.493.454-.796 0-1.895-1.933-7.124-5.8-15.69 1.365-1.894 2.502-3.864 3.412-5.91 11.293-1.138 16.94-2.312 16.94-3.525V237.37c0-1.212-5.647-2.387-16.94-3.524-.985-2.198-2.122-4.168-3.41-5.912 3.865-8.564 5.797-13.794 5.797-15.69 0-.302-.152-.567-.455-.794-9.095-5.306-13.795-7.96-14.098-7.96zm-14.552 27.287c3.94 0 7.352 1.44 10.232 4.32 2.88 2.88 4.32 6.29 4.32 10.232 0 4.016-1.42 7.445-4.263 10.287-2.842 2.843-6.272 4.264-10.29 4.264-4.016 0-7.445-1.42-10.288-4.263-2.842-2.842-4.263-6.27-4.263-10.288 0-3.942 1.44-7.353 4.32-10.233 2.88-2.88 6.29-4.32 10.232-4.32zM196.67 274.433c8.035 0 14.894 2.842 20.578 8.527 5.685 5.684 8.527 12.543 8.527 20.577 0 8.034-2.842 14.893-8.527 20.578-5.684 5.684-12.543 8.526-20.577 8.526-8.033 0-14.893-2.84-20.577-8.525-5.684-5.685-8.527-12.544-8.527-20.578 0-8.034 2.843-14.893 8.527-20.577 5.684-5.685 12.544-8.527 20.578-8.527z"/></g></svg>