<svg xmlns="http://www.w3.org/2000/svg" width="480" height="420" viewBox="0, 0, 480, 420"><g fill="#282832"><path d="M46.607 241.711c13.393-10.711 193.627-167.033 193.627-167.033l192.432 166.228s8.26 8.223 16.547 3.283c8.287-4.939 21.65-18.994 22.844-21.591 1.193-2.598 1.267-7.504-2.645-13.676-3.912-6.172-206.33-179.223-217.871-189.322-11.541-10.1-22.613.543-22.613.543s-197.94 171.263-211.434 183.06c-18.494 13.797-4.719 23.395-4.719 23.395l12.676 14.547s7.764 11.277 21.156.566zM341.374 75.1l58.099 49.17s.675-49.887.101-65.912c-.574-16.025-14.017-14.712-14.017-14.712l-28.484-.363s-15.38-.9-15.727 12.742c-.346 13.642.028 19.075.028 19.075zM240.354 99.279l173.787 151.25s.526 90.471.192 124.471c-.333 34-35.373 30.764-35.373 30.764l-277.011-.217s-35.66 6.229-35.804-34.992c-.145-41.222-.088-120.159-.088-120.159zm-33.11 131.498h-21.146c-1.744 0-2.881.909-3.411 2.728-.91 3.487-1.781 9.323-2.615 17.508-3.259 1.061-6.177 2.274-8.754 3.638l-13.074-10.232c-.758-.53-1.554-.796-2.387-.796-1.441 0-4.434 2.236-8.982 6.708-4.547 4.472-7.655 7.844-9.322 10.118-.531.607-.796 1.365-.796 2.274 0 .682.265 1.44.796 2.274 4.244 5.078 7.655 9.436 10.232 13.074-1.592 3.107-2.805 5.987-3.638 8.64l-17.622 2.729c-.682.076-1.289.473-1.819 1.193-.531.72-.796 1.459-.796 2.217v21.033c0 .833.265 1.572.796 2.217.53.644 1.175 1.004 1.933 1.08l17.28 2.728c.91 2.88 2.236 5.988 3.979 9.323-1.212 1.667-2.993 3.979-5.343 6.935-2.35 2.955-3.903 4.964-4.661 6.025-.531.758-.796 1.478-.796 2.16 0 2.046 5.457 8.11 16.371 18.19.758.607 1.554.91 2.388.91.985 0 1.743-.266 2.273-.796l13.415-10.118c3.108 1.591 5.95 2.766 8.527 3.524l2.615 17.394c.076.758.455 1.421 1.137 1.99.682.568 1.44.852 2.274.852h21.145c1.744 0 2.881-.909 3.411-2.728.91-3.562 1.781-9.436 2.615-17.622 3.032-.909 5.95-2.084 8.754-3.524l13.074 10.232c.758.53 1.554.796 2.388.796 1.44 0 4.414-2.255 8.924-6.765 4.51-4.509 7.636-7.901 9.379-10.175.531-.53.796-1.25.796-2.16 0-.758-.265-1.516-.796-2.274-4.244-5.078-7.655-9.436-10.232-13.074 1.592-3.107 2.805-5.987 3.638-8.64l17.622-2.729c.682-.075 1.289-.473 1.819-1.193.531-.72.796-1.459.796-2.217v-21.033c0-.833-.265-1.572-.796-2.216-.53-.645-1.175-1.043-1.933-1.194l-17.28-2.615c-.834-2.577-2.122-5.684-3.866-9.322 1.137-1.668 2.843-3.942 5.116-6.822 2.274-2.88 3.866-4.926 4.775-6.139.531-.758.796-1.478.796-2.16 0-2.046-5.457-8.11-16.371-18.19-.758-.606-1.554-.91-2.387-.91-.91 0-1.668.266-2.274.796l-13.415 10.118c-3.108-1.591-5.95-2.766-8.527-3.524l-2.615-17.394c-.076-.758-.455-1.421-1.137-1.99-.682-.568-1.44-.852-2.273-.852zm105.843-27.286l-.682.228c-3.107 3.107-6.594 7.352-10.459 12.733-1.516-.152-2.653-.227-3.411-.227s-1.895.075-3.41.227c-1.062-1.592-3.032-4.15-5.912-7.674s-4.624-5.287-5.23-5.287c-.152 0-1.288.607-3.411 1.819-2.122 1.213-4.358 2.502-6.707 3.866-2.35 1.364-3.676 2.122-3.979 2.274-.303.227-.455.492-.455.795 0 1.895 1.933 7.125 5.798 15.689-1.288 1.744-2.425 3.714-3.411 5.912-11.293 1.137-16.939 2.312-16.939 3.525v15.916c0 1.213 5.646 2.387 16.939 3.524.91 2.047 2.047 4.017 3.411 5.912-3.865 8.565-5.798 13.794-5.798 15.689 0 .303.152.568.455.796 9.246 5.381 13.945 8.072 14.097 8.072.606 0 2.35-1.781 5.23-5.344 2.88-3.562 4.85-6.139 5.912-7.73 1.515.151 2.652.227 3.41.227s1.895-.076 3.411-.227c1.061 1.591 3.031 4.168 5.912 7.73 2.88 3.563 4.623 5.344 5.229 5.344.152 0 4.851-2.691 14.098-8.072.303-.228.454-.493.454-.796 0-1.895-1.932-7.124-5.798-15.689 1.364-1.895 2.501-3.865 3.411-5.912 11.293-1.137 16.939-2.311 16.939-3.524v-15.917c0-1.212-5.646-2.387-16.939-3.524-.985-2.198-2.122-4.168-3.411-5.912 3.866-8.564 5.798-13.794 5.798-15.689 0-.303-.151-.568-.454-.795-9.095-5.306-13.795-7.959-14.098-7.959zm-14.552 27.286c3.941 0 7.352 1.44 10.232 4.32 2.88 2.88 4.32 6.291 4.32 10.232 0 4.017-1.421 7.446-4.263 10.288-2.842 2.843-6.272 4.264-10.289 4.264-4.017 0-7.446-1.421-10.289-4.264-2.842-2.842-4.263-6.271-4.263-10.288 0-3.941 1.44-7.352 4.32-10.232 2.88-2.88 6.291-4.32 10.232-4.32zm-101.864 43.656c8.034 0 14.893 2.842 20.577 8.527 5.685 5.684 8.527 12.543 8.527 20.577 0 8.034-2.842 14.893-8.527 20.578-5.684 5.684-12.543 8.526-20.577 8.526-8.034 0-14.894-2.842-20.578-8.526-5.684-5.685-8.527-12.544-8.527-20.578 0-8.034 2.843-14.893 8.527-20.577 5.684-5.685 12.544-8.527 20.578-8.527z"/></g></svg>